<svg id="svg" version="1.1" xmlns="http://www.w3.org/2000/svg" xmlns:xlink="http://www.w3.org/1999/xlink" width="400" height="300" viewBox="0, 0, 400,300"><g id="svgg"><path id="path0" d="M311.328 38.410 C 305.109 38.648,298.781 39.105,294.374 39.633 C 292.971 39.802,291.080 40.012,290.173 40.101 C 289.265 40.190,288.394 40.386,288.237 40.537 C 288.080 40.687,287.608 40.813,287.187 40.816 C 286.551 40.820,283.517 41.528,278.320 42.883 C 275.515 43.615,269.534 45.865,267.067 47.117 C 262.064 49.656,260.936 50.254,260.470 50.620 C 260.220 50.817,258.929 51.790,257.602 52.782 C 252.708 56.441,247.867 61.915,245.042 66.986 C 242.537 71.483,240.483 75.914,238.730 80.599 C 237.624 83.554,236.600 86.242,236.454 86.572 C 236.309 86.902,235.507 89.229,234.673 91.743 C 232.979 96.853,232.896 97.077,230.390 103.376 C 225.987 114.443,221.026 121.673,213.587 127.863 C 212.616 128.671,211.703 129.332,211.559 129.332 C 211.414 129.332,211.117 129.504,210.899 129.714 C 208.604 131.921,201.917 134.749,194.899 136.481 C 187.155 138.391,173.724 138.081,159.340 135.659 C 158.432 135.507,156.407 135.175,154.839 134.923 C 153.271 134.670,151.245 134.330,150.338 134.166 C 149.430 134.002,147.506 133.657,146.062 133.400 C 144.617 133.143,142.254 132.723,140.810 132.466 C 136.055 131.620,135.219 131.474,131.583 130.861 C 129.602 130.528,126.969 130.110,125.731 129.933 C 124.494 129.756,122.603 129.486,121.530 129.333 C 117.300 128.732,111.769 128.425,105.206 128.429 L 98.335 128.432 98.597 132.108 C 98.930 136.772,98.781 148.369,98.372 149.687 C 98.129 150.471,98.171 150.973,98.568 152.012 C 98.986 153.108,99.044 153.998,98.900 157.163 C 98.590 163.983,98.542 176.881,98.825 177.270 C 98.978 177.479,99.001 178.409,98.879 179.370 C 98.757 180.319,98.664 181.905,98.671 182.896 C 98.678 183.886,98.659 187.059,98.629 189.947 C 98.547 197.868,98.587 200.516,98.857 204.951 C 99.036 207.901,98.998 209.573,98.717 211.103 C 98.505 212.258,98.345 213.743,98.361 214.404 C 98.413 216.551,98.722 236.154,98.800 242.206 C 98.848 246.038,98.980 248.039,99.175 247.922 C 99.573 247.683,104.885 243.630,111.338 238.642 C 112.240 237.945,115.881 235.144,119.430 232.416 C 122.978 229.689,127.367 226.310,129.182 224.908 C 130.998 223.505,135.386 220.130,138.935 217.408 C 142.483 214.685,146.872 211.309,148.687 209.904 C 150.503 208.499,156.039 204.231,160.990 200.420 C 165.941 196.608,170.410 193.165,170.921 192.769 C 172.227 191.755,172.792 191.850,173.339 193.173 C 173.595 193.792,174.128 195.012,174.524 195.883 C 174.920 196.754,175.244 197.517,175.244 197.579 C 175.244 197.640,175.771 198.818,176.416 200.196 C 177.061 201.573,178.261 204.254,179.082 206.152 C 179.904 208.050,181.010 210.547,181.541 211.701 C 182.072 212.856,183.049 215.084,183.713 216.653 C 184.985 219.658,185.604 221.043,187.365 224.832 C 187.960 226.112,188.447 227.277,188.447 227.421 C 188.447 229.021,189.449 227.926,193.449 221.953 C 195.787 218.461,199.081 213.578,200.768 211.103 C 202.455 208.627,206.338 202.891,209.396 198.357 C 212.454 193.822,215.069 189.974,215.207 189.805 C 215.345 189.636,216.908 187.335,218.681 184.692 C 220.455 182.048,222.817 178.538,223.930 176.890 C 225.043 175.242,226.859 172.543,227.964 170.893 C 229.070 169.242,231.038 166.339,232.339 164.441 C 236.287 158.679,240.467 152.486,241.260 151.224 C 241.875 150.246,248.688 140.205,257.811 126.831 C 258.693 125.537,259.550 124.253,259.715 123.976 C 259.880 123.700,262.036 120.505,264.506 116.876 C 266.976 113.247,269.952 108.869,271.118 107.148 C 273.988 102.915,274.073 102.918,274.615 107.277 C 275.239 112.295,275.727 115.690,277.293 125.881 C 277.619 128.005,278.667 135.736,278.920 137.884 C 279.017 138.710,279.222 140.128,279.376 141.035 C 279.530 141.943,279.863 144.306,280.117 146.287 C 280.370 148.267,280.703 150.630,280.855 151.538 C 281.008 152.446,281.279 154.167,281.458 155.363 C 281.638 156.558,281.911 158.381,282.066 159.414 C 282.221 160.446,282.623 163.316,282.961 165.791 C 283.298 168.267,283.709 171.238,283.874 172.393 C 284.039 173.548,284.320 175.574,284.498 176.894 C 284.676 178.215,284.940 180.173,285.085 181.245 C 285.230 182.318,285.488 184.107,285.660 185.221 C 285.831 186.335,286.092 188.091,286.240 189.122 C 287.437 197.503,287.924 200.415,288.094 200.223 C 288.202 200.100,288.658 198.987,289.106 197.749 C 289.554 196.512,290.032 195.229,290.167 194.899 C 290.303 194.569,290.845 193.016,291.371 191.448 C 292.413 188.344,294.249 183.254,294.672 182.296 C 294.818 181.965,295.341 180.480,295.835 178.995 C 296.329 177.509,297.295 174.741,297.982 172.843 C 298.668 170.945,299.900 167.434,300.719 165.041 C 301.539 162.648,302.326 160.420,302.468 160.090 C 302.611 159.760,303.087 158.477,303.526 157.239 C 303.965 156.002,304.442 154.719,304.587 154.389 C 304.731 154.059,305.516 151.830,306.331 149.437 C 307.770 145.209,308.561 143.017,309.092 141.785 C 309.234 141.455,309.706 140.105,310.140 138.785 C 311.284 135.308,313.802 128.249,315.064 124.981 C 315.191 124.651,315.459 123.841,315.659 123.181 C 315.858 122.521,316.270 121.305,316.573 120.480 C 316.875 119.655,317.619 117.629,318.224 115.979 C 318.830 114.329,319.445 112.708,319.592 112.378 C 319.739 112.048,320.217 110.630,320.656 109.227 C 321.420 106.783,322.932 102.537,323.489 101.275 C 323.874 100.404,326.828 91.784,326.991 91.060 C 327.140 90.391,327.315 90.452,321.380 89.103 C 316.886 88.082,315.835 87.741,315.743 87.274 C 315.655 86.826,315.776 86.662,318.080 84.107 C 318.822 83.283,319.767 82.217,320.180 81.738 C 320.593 81.258,322.412 79.179,324.222 77.117 C 326.033 75.055,328.936 71.748,330.674 69.768 C 332.412 67.787,334.171 65.829,334.585 65.417 C 334.998 65.004,335.695 64.194,336.134 63.616 C 337.346 62.020,340.466 58.815,340.807 58.815 C 340.986 58.815,341.184 60.551,341.295 63.091 C 341.527 68.384,341.972 79.784,342.262 87.847 L 342.481 93.923 341.691 93.923 C 341.023 93.923,335.348 92.615,333.167 91.958 C 332.481 91.752,332.475 91.759,331.546 94.149 C 331.401 94.520,331.161 95.128,331.013 95.499 C 330.660 96.382,330.381 97.182,328.734 102.026 C 327.976 104.254,327.234 106.347,327.086 106.677 C 326.720 107.487,324.914 112.454,323.976 115.229 C 323.558 116.467,322.720 118.830,322.114 120.480 C 321.508 122.131,320.281 125.574,319.388 128.132 C 316.862 135.369,315.959 137.796,315.344 139.006 C 315.198 139.292,315.079 139.663,315.079 139.830 C 315.079 140.134,311.984 149.068,311.490 150.188 C 311.195 150.858,309.960 154.269,309.263 156.339 C 308.232 159.403,305.284 167.552,304.867 168.492 C 304.721 168.822,304.249 170.173,303.817 171.493 C 303.386 172.813,302.379 175.649,301.578 177.794 C 300.778 179.940,299.849 182.506,299.515 183.496 C 298.603 186.195,297.226 190.086,296.169 192.948 C 295.111 195.817,294.014 198.898,293.179 201.350 C 292.870 202.258,292.119 204.351,291.511 206.002 C 290.282 209.334,287.285 217.762,286.789 219.280 C 286.614 219.816,286.297 220.255,286.085 220.255 C 285.658 220.255,285.637 220.155,284.748 213.953 C 284.405 211.560,283.999 208.758,283.847 207.727 C 283.695 206.695,283.447 205.008,283.295 203.976 C 283.143 202.944,282.800 200.548,282.533 198.650 C 282.266 196.752,281.638 192.363,281.137 188.897 C 280.637 185.431,280.088 181.515,279.917 180.195 C 279.747 178.875,279.488 177.052,279.342 176.144 C 279.032 174.206,278.614 171.426,278.192 168.492 C 278.026 167.337,277.685 165.039,277.434 163.386 C 277.183 161.734,276.699 158.358,276.359 155.885 C 276.019 153.411,275.601 150.375,275.430 149.137 C 275.259 147.899,275.008 146.077,274.872 145.086 C 274.613 143.201,274.294 141.085,273.515 136.084 C 273.258 134.434,272.918 132.138,272.760 130.983 C 272.602 129.827,272.335 128.005,272.168 126.932 C 271.782 124.466,271.258 120.669,271.010 118.530 L 270.818 116.879 268.436 120.330 C 267.126 122.228,264.695 125.806,263.034 128.282 C 261.374 130.758,259.947 132.851,259.865 132.933 C 259.782 133.016,258.788 134.490,257.654 136.209 C 256.521 137.929,255.471 139.482,255.321 139.660 C 255.171 139.839,253.953 141.605,252.614 143.586 C 251.274 145.566,248.212 150.090,245.809 153.638 C 243.406 157.187,239.622 162.791,237.401 166.092 C 235.180 169.392,231.876 174.254,230.058 176.894 C 228.240 179.535,224.789 184.599,222.389 188.147 C 219.990 191.695,217.512 195.341,216.884 196.249 C 216.255 197.157,214.608 199.587,213.223 201.650 C 210.485 205.730,206.207 212.037,200.603 220.255 C 196.759 225.892,192.190 232.656,190.013 235.934 C 188.284 238.537,187.878 238.537,186.790 235.934 C 186.324 234.820,185.546 233.031,185.062 231.958 C 184.577 230.885,183.582 228.657,182.851 227.007 C 182.120 225.356,181.397 223.736,181.245 223.406 C 181.093 223.076,180.371 221.455,179.639 219.805 C 178.908 218.155,177.971 216.062,177.557 215.154 C 177.144 214.246,176.441 212.626,175.996 211.553 C 175.552 210.480,174.793 208.767,174.310 207.747 C 173.827 206.726,172.831 204.498,172.098 202.795 C 170.495 199.075,170.920 199.113,166.777 202.324 C 163.177 205.114,159.063 208.272,154.558 211.703 C 153.041 212.858,150.405 214.884,148.702 216.204 C 146.998 217.524,144.357 219.550,142.833 220.705 C 141.310 221.860,139.910 222.941,139.723 223.106 C 139.536 223.271,138.303 224.214,136.983 225.202 C 135.663 226.190,134.516 227.077,134.434 227.174 C 134.351 227.270,133.541 227.897,132.633 228.566 C 131.725 229.236,127.539 232.433,123.331 235.672 C 119.122 238.910,112.738 243.822,109.143 246.587 L 102.607 251.613 110.629 251.806 C 115.041 251.912,119.617 252.164,120.800 252.366 C 121.982 252.569,123.541 252.650,124.265 252.548 C 127.433 252.100,128.960 252.032,130.083 252.289 C 130.825 252.460,133.203 252.449,136.315 252.261 C 140.838 251.988,141.457 252.010,142.423 252.471 C 143.016 252.754,143.767 252.899,144.097 252.794 C 145.655 252.299,160.757 251.920,161.289 252.362 C 161.557 252.584,162.124 252.660,162.712 252.552 C 163.251 252.454,165.919 252.379,168.642 252.387 C 179.211 252.418,181.012 252.400,187.697 252.189 C 194.682 251.969,195.739 251.961,197.899 252.106 C 198.560 252.150,200.868 252.073,203.028 251.935 C 206.531 251.711,206.977 251.737,207.145 252.173 C 207.404 252.848,208.114 252.787,208.819 252.029 L 209.410 251.395 213.857 251.909 C 217.524 252.332,218.726 252.362,220.705 252.079 C 222.026 251.891,223.443 251.740,223.856 251.744 C 224.269 251.749,225.170 251.605,225.860 251.425 C 226.885 251.157,227.289 251.185,228.081 251.580 C 229.139 252.108,230.329 252.213,230.584 251.802 C 230.871 251.336,232.533 251.169,233.989 251.458 C 237.953 252.246,238.952 252.310,243.354 252.063 C 247.273 251.844,248.133 251.876,249.144 252.281 C 250.218 252.710,250.540 252.712,252.473 252.302 C 255.226 251.717,270.368 251.840,277.269 252.504 C 279.696 252.737,292.326 252.644,296.595 252.361 C 298.890 252.209,300.887 252.159,301.034 252.249 C 301.180 252.340,302.326 252.459,303.580 252.513 C 305.053 252.578,305.954 252.755,306.124 253.013 C 306.337 253.336,306.465 253.313,306.786 252.894 C 307.226 252.321,306.552 252.339,323.256 252.455 C 328.001 252.488,331.885 252.447,331.888 252.364 C 331.894 252.218,333.218 247.315,334.158 243.961 C 334.413 243.053,335.220 240.015,335.952 237.209 C 336.683 234.404,337.670 230.690,338.144 228.957 C 339.575 223.727,340.483 220.338,341.764 215.454 C 342.434 212.896,343.241 209.857,343.557 208.702 C 344.856 203.945,345.482 201.606,346.448 197.899 C 347.376 194.340,348.635 189.669,349.280 187.397 C 349.421 186.902,350.222 183.863,351.061 180.645 C 351.900 177.427,352.939 173.511,353.370 171.943 C 354.110 169.248,354.943 166.116,357.042 158.140 C 357.983 154.563,358.856 151.379,359.673 148.537 C 359.934 147.629,360.254 146.414,360.384 145.836 C 360.813 143.930,363.360 134.246,363.787 132.902 C 364.433 130.863,364.984 128.804,366.391 123.181 C 367.175 120.046,367.608 118.427,368.799 114.179 C 369.128 113.004,370.412 108.135,371.490 103.976 C 371.961 102.161,372.644 99.595,373.007 98.275 C 374.305 93.560,375.146 90.408,376.288 85.971 C 377.322 81.956,377.861 79.946,378.700 76.969 C 378.840 76.474,379.042 75.731,379.150 75.319 C 379.257 74.906,379.452 74.299,379.582 73.968 C 379.884 73.204,382.294 63.487,382.504 62.188 C 382.591 61.650,382.782 61.136,382.929 61.045 C 383.076 60.954,383.196 60.548,383.196 60.143 C 383.196 59.738,383.321 59.172,383.475 58.886 C 383.752 58.367,384.598 55.216,386.071 49.212 C 386.811 46.200,387.123 45.021,387.550 43.632 C 387.767 42.925,387.006 42.514,384.846 42.169 C 377.711 41.029,375.037 40.690,369.392 40.215 C 367.659 40.069,365.701 39.878,365.041 39.792 C 364.381 39.706,360.533 39.491,356.489 39.315 C 352.446 39.139,346.302 38.868,342.836 38.713 C 333.504 38.295,318.157 38.147,311.328 38.410 M92.723 129.039 C 83.253 130.293,71.745 135.104,65.667 140.349 C 65.135 140.809,64.084 141.719,63.332 142.372 C 60.012 145.256,53.119 152.424,50.332 155.889 C 42.518 165.607,37.443 173.527,31.768 184.859 C 29.975 188.440,28.507 191.451,28.507 191.550 C 28.507 191.649,28.178 192.449,27.777 193.327 C 25.490 198.326,22.047 207.712,19.826 215.004 C 19.378 216.476,17.128 225.461,16.772 227.199 C 16.592 228.084,16.338 229.280,16.210 229.857 C 16.081 230.435,15.766 231.920,15.509 233.158 C 15.081 235.219,14.877 236.450,14.085 241.710 C 12.964 249.157,12.248 258.344,12.196 265.936 L 12.153 272.318 169.061 272.393 C 273.337 272.443,326.091 272.368,326.331 272.169 C 326.530 272.004,326.930 270.957,327.221 269.843 C 327.511 268.729,328.132 266.467,328.600 264.816 C 329.069 263.166,329.852 260.263,330.341 258.365 C 330.829 256.467,331.323 254.677,331.438 254.389 C 331.681 253.778,328.142 253.596,327.080 254.165 C 326.691 254.373,325.247 254.314,322.407 253.973 C 319.174 253.585,317.987 253.551,316.845 253.815 C 315.977 254.015,315.119 254.046,314.711 253.893 C 314.251 253.720,313.743 253.781,313.154 254.083 C 312.528 254.403,311.934 254.464,311.054 254.297 C 310.379 254.169,308.882 254.071,307.727 254.079 C 305.189 254.097,283.435 254.148,281.320 254.141 C 280.495 254.138,274.518 254.147,268.037 254.162 C 261.557 254.176,256.041 254.068,255.779 253.922 C 255.517 253.775,254.742 253.761,254.058 253.889 C 252.854 254.116,252.560 254.101,250.788 253.727 C 250.183 253.599,249.962 253.670,249.962 253.992 C 249.962 254.434,247.982 254.590,243.811 254.477 C 240.014 254.375,233.247 254.433,229.599 254.599 C 226.782 254.728,225.467 254.680,225.176 254.438 C 224.612 253.970,221.772 253.951,221.486 254.413 C 221.281 254.745,216.893 254.845,209.002 254.696 C 208.177 254.680,204.464 254.761,200.750 254.876 C 191.701 255.155,140.898 255.200,140.460 254.929 C 140.269 254.811,139.379 254.946,138.483 255.228 C 137.006 255.692,136.264 255.708,130.617 255.397 C 127.141 255.205,118.108 255.086,110.211 255.127 C 101.275 255.173,95.937 255.092,95.760 254.907 C 95.315 254.443,95.096 238.937,95.471 234.509 C 95.705 231.744,95.711 229.126,95.492 225.522 C 95.304 222.421,95.290 220.156,95.457 219.717 C 95.628 219.268,95.615 218.566,95.424 217.854 C 95.218 217.091,95.211 215.628,95.403 213.447 C 95.593 211.275,95.586 209.733,95.383 208.842 C 94.892 206.695,94.886 195.550,95.376 194.958 C 95.697 194.570,95.707 194.257,95.428 193.411 C 95.174 192.641,95.122 189.275,95.240 181.171 C 95.329 175.023,95.389 169.655,95.374 169.242 C 95.358 168.830,95.356 168.155,95.369 167.742 C 95.409 166.456,95.410 165.587,95.375 162.491 C 95.356 160.840,95.411 156.722,95.496 153.338 C 95.581 149.955,95.655 144.554,95.660 141.335 C 95.665 138.117,95.694 133.965,95.724 132.108 C 95.787 128.261,96.110 128.590,92.723 129.039 " stroke="none" fill="#4f80df" fill-rule="evenodd"></path><path id="path1" d="M0.000 150.038 L 0.000 300.075 200.000 300.075 L 400.000 300.075 400.000 150.038 L 400.000 0.000 200.000 0.000 L 0.000 0.000 0.000 150.038 M98.122 19.652 C 98.783 20.448,98.889 23.955,98.286 25.075 C 97.883 25.822,97.825 26.258,98.041 26.906 L 98.325 27.757 140.760 27.907 L 183.196 28.057 183.272 82.596 L 183.347 137.134 185.372 137.132 C 193.090 137.122,207.273 132.860,210.353 129.625 C 210.435 129.538,211.453 128.770,212.615 127.918 C 219.495 122.871,225.375 114.442,230.153 102.776 C 230.908 100.932,233.810 92.858,235.059 89.122 C 243.476 63.961,252.682 52.111,268.867 45.603 C 269.775 45.238,270.953 44.748,271.486 44.514 C 273.383 43.682,277.864 42.312,281.515 41.448 C 287.253 40.091,290.589 39.483,295.574 38.885 C 304.696 37.792,307.460 37.674,323.331 37.695 C 341.380 37.720,353.397 38.268,372.093 39.919 C 377.292 40.378,386.036 41.643,387.772 42.186 C 388.507 42.417,388.021 45.045,385.944 52.063 C 385.216 54.523,384.283 57.989,382.594 64.516 C 381.619 68.280,379.853 74.855,379.288 76.819 C 379.122 77.397,378.242 80.705,377.331 84.171 C 376.420 87.637,375.554 90.878,375.405 91.373 C 375.018 92.662,374.672 93.949,372.947 100.525 C 372.103 103.743,371.151 107.322,370.832 108.477 C 369.880 111.922,369.497 113.350,368.221 118.230 C 367.552 120.788,366.729 123.893,366.391 125.131 C 365.260 129.279,364.251 133.058,363.386 136.384 C 362.589 139.451,361.360 143.967,360.652 146.437 C 360.486 147.014,360.236 147.959,360.096 148.537 C 359.704 150.156,357.242 159.501,356.499 162.191 C 355.267 166.648,354.452 169.678,353.231 174.344 C 352.309 177.870,351.757 179.919,350.908 182.971 C 350.644 183.920,350.183 185.641,349.884 186.797 C 348.623 191.671,346.654 198.986,345.644 202.551 C 345.480 203.128,345.235 204.074,345.099 204.651 C 344.529 207.074,342.285 215.535,341.440 218.448 C 340.938 220.178,340.126 223.148,339.634 225.050 C 337.462 233.455,337.351 233.870,335.426 240.810 C 335.105 241.965,334.392 244.687,333.842 246.859 C 333.292 249.030,332.759 251.067,332.658 251.385 C 332.265 252.623,338.205 253.280,339.467 252.138 C 339.916 251.732,340.126 251.707,340.598 252.001 C 340.916 252.200,341.689 252.363,342.315 252.363 C 342.940 252.363,343.761 252.579,344.138 252.843 C 344.751 253.273,344.876 253.275,345.330 252.868 C 346.057 252.214,350.488 252.169,354.528 252.774 C 356.428 253.058,358.423 253.187,359.249 253.077 C 360.285 252.940,360.872 253.014,361.377 253.345 C 361.863 253.662,362.231 253.715,362.585 253.516 C 363.183 253.182,363.691 253.418,363.691 254.031 C 363.691 254.270,363.389 254.478,363.016 254.495 C 357.392 254.754,355.363 254.731,354.737 254.402 C 354.158 254.098,353.884 254.120,353.177 254.526 C 352.385 254.980,352.202 254.981,350.807 254.535 C 349.500 254.117,349.035 254.104,347.367 254.435 C 346.306 254.646,343.907 254.797,342.036 254.771 C 331.318 254.621,331.729 254.557,331.243 256.449 C 331.100 257.008,330.839 257.971,330.663 258.590 C 330.487 259.209,330.231 260.188,330.094 260.765 C 329.356 263.883,327.327 271.511,327.080 272.093 L 326.795 272.768 169.254 272.768 L 11.714 272.768 11.508 271.947 C 11.395 271.495,11.468 267.613,11.670 263.320 C 12.180 252.486,12.936 245.258,14.401 237.209 C 14.581 236.219,14.859 234.599,15.017 233.608 C 15.176 232.618,15.429 231.268,15.580 230.608 C 15.732 229.947,16.022 228.597,16.226 227.607 C 17.351 222.136,19.958 212.821,22.272 206.002 C 23.679 201.854,27.701 192.140,29.856 187.684 C 31.129 185.051,32.393 182.423,32.665 181.845 C 33.117 180.882,33.171 174.480,33.308 104.426 L 33.458 28.057 64.034 27.981 C 96.770 27.899,96.258 27.923,95.095 26.522 C 94.751 26.107,94.989 21.098,95.405 20.003 C 95.757 19.080,97.464 18.859,98.122 19.652 M339.232 60.982 C 338.607 61.688,337.472 62.941,336.710 63.766 C 335.947 64.591,334.936 65.739,334.463 66.317 C 333.990 66.894,332.762 68.312,331.733 69.467 C 330.705 70.623,328.191 73.467,326.147 75.787 C 324.103 78.108,321.029 81.590,319.315 83.525 C 317.602 85.459,316.257 87.099,316.326 87.169 C 316.395 87.238,318.067 87.698,320.042 88.191 C 328.952 90.415,328.202 89.862,326.903 93.245 C 325.757 96.229,323.366 102.909,320.323 111.628 C 319.891 112.866,319.420 114.149,319.277 114.479 C 319.133 114.809,318.481 116.632,317.826 118.530 C 317.172 120.428,316.210 123.128,315.689 124.531 C 315.167 125.934,314.428 128.027,314.046 129.182 C 313.664 130.338,312.784 132.836,312.092 134.734 C 311.399 136.632,310.379 139.467,309.826 141.035 C 309.273 142.603,308.189 145.641,307.418 147.787 C 305.801 152.282,303.482 158.820,302.041 162.941 C 301.493 164.509,300.834 166.332,300.577 166.992 C 300.319 167.652,299.300 170.488,298.312 173.293 C 297.325 176.099,296.024 179.745,295.423 181.395 C 294.822 183.046,294.125 185.004,293.874 185.746 C 293.623 186.489,292.738 188.987,291.907 191.298 C 289.982 196.650,288.379 201.179,288.375 201.275 C 288.373 201.317,288.176 201.350,287.936 201.350 C 287.445 201.350,287.432 201.288,286.582 194.899 C 285.883 189.645,285.444 186.545,285.075 184.246 C 284.929 183.338,284.725 181.853,284.621 180.945 C 284.517 180.038,284.312 178.552,284.164 177.644 C 283.490 173.510,282.362 165.599,280.740 153.638 C 279.993 148.131,279.590 145.411,279.053 142.236 C 278.899 141.328,278.168 136.197,277.426 130.833 C 275.406 116.209,275.000 113.342,274.559 110.578 C 274.401 109.587,274.186 108.035,274.081 107.127 C 273.699 103.822,274.463 102.972,264.512 117.779 C 261.074 122.896,256.686 129.377,254.762 132.183 C 252.837 134.989,248.531 141.335,245.193 146.287 C 241.854 151.238,237.562 157.584,235.656 160.390 C 232.453 165.102,226.746 173.534,215.754 189.790 C 213.361 193.330,211.235 196.467,211.030 196.762 C 210.824 197.058,209.423 199.122,207.916 201.350 C 206.408 203.578,203.207 208.305,200.801 211.853 C 198.396 215.401,194.821 220.701,192.857 223.631 C 190.893 226.560,189.181 228.957,189.053 228.957 C 188.594 228.957,188.164 228.081,185.299 221.305 C 185.090 220.810,184.548 219.595,184.097 218.605 C 183.645 217.614,182.803 215.724,182.226 214.404 C 181.650 213.083,180.788 211.150,180.311 210.107 C 179.835 209.064,179.445 208.164,179.445 208.108 C 179.445 208.052,178.986 207.014,178.424 205.803 C 177.863 204.592,176.731 202.048,175.908 200.150 C 173.380 194.317,172.563 192.648,172.234 192.648 C 171.876 192.648,169.826 194.128,165.602 197.436 C 164.012 198.681,159.982 201.793,156.645 204.351 C 153.309 206.909,148.920 210.285,146.892 211.853 C 144.863 213.421,141.062 216.346,138.444 218.353 C 133.715 221.979,127.312 226.906,119.298 233.084 C 116.997 234.858,113.613 237.457,111.778 238.860 C 98.966 248.650,99.038 248.591,99.036 249.362 C 99.031 250.635,99.372 251.463,99.900 251.463 C 100.178 251.463,100.538 251.596,100.701 251.759 C 101.104 252.162,102.984 250.833,113.588 242.653 C 118.479 238.880,123.381 235.103,124.481 234.260 C 126.628 232.616,140.956 221.589,143.850 219.355 C 144.812 218.612,148.072 216.114,151.095 213.803 C 154.117 211.493,158.593 208.054,161.041 206.163 C 171.906 197.764,170.651 198.236,172.246 201.950 C 172.778 203.188,173.535 204.914,173.928 205.785 C 174.322 206.657,174.644 207.431,174.644 207.505 C 174.644 207.579,175.170 208.757,175.813 210.122 C 176.456 211.487,177.656 214.156,178.479 216.054 C 179.303 217.952,180.412 220.450,180.945 221.605 C 181.478 222.761,182.588 225.259,183.412 227.157 C 184.235 229.055,185.277 231.418,185.726 232.408 C 186.176 233.398,186.862 234.920,187.252 235.790 C 188.275 238.077,187.264 239.213,196.825 225.026 C 199.205 221.494,202.774 216.242,204.755 213.353 C 206.737 210.465,210.587 204.794,213.311 200.750 C 216.036 196.707,221.118 189.212,224.605 184.096 C 228.092 178.980,231.568 173.848,232.328 172.693 C 233.089 171.538,235.984 167.250,238.761 163.164 C 245.516 153.227,251.779 143.996,255.610 138.335 C 266.908 121.635,270.766 116.109,270.974 116.329 C 271.211 116.581,272.225 122.947,273.356 131.283 C 274.019 136.176,274.456 139.284,274.872 142.086 C 275.019 143.076,275.353 145.371,275.615 147.187 C 275.877 149.002,276.222 151.298,276.380 152.288 C 276.539 153.278,277.076 157.059,277.573 160.690 C 278.070 164.321,278.614 168.170,278.783 169.242 C 278.952 170.315,279.501 174.096,280.004 177.644 C 280.506 181.193,281.043 184.906,281.196 185.896 C 281.350 186.887,281.607 188.642,281.769 189.797 C 281.931 190.953,282.339 193.788,282.676 196.099 C 283.013 198.410,283.416 201.245,283.570 202.401 C 283.901 204.868,284.689 210.519,285.120 213.503 C 285.286 214.659,285.512 216.336,285.622 217.231 C 285.869 219.249,286.304 219.449,286.819 217.780 C 287.268 216.324,289.162 211.103,289.568 210.203 C 289.716 209.872,290.336 208.117,290.944 206.302 C 291.553 204.486,292.697 201.245,293.486 199.100 C 294.276 196.954,295.550 193.376,296.318 191.148 C 297.086 188.920,298.190 185.814,298.772 184.246 C 300.683 179.100,300.923 178.435,302.284 174.494 C 303.025 172.348,303.988 169.647,304.423 168.492 C 304.859 167.337,305.536 165.446,305.929 164.291 C 306.322 163.136,307.334 160.300,308.178 157.989 C 309.022 155.679,310.296 152.101,311.008 150.038 C 311.720 147.974,312.780 145.004,313.362 143.436 C 314.393 140.663,316.060 135.968,316.986 133.233 C 317.238 132.491,318.068 130.195,318.831 128.132 C 319.593 126.069,320.805 122.693,321.523 120.630 C 322.241 118.567,323.257 115.731,323.781 114.329 C 324.306 112.926,324.845 111.440,324.979 111.028 C 325.404 109.721,329.602 97.981,331.490 92.817 C 332.051 91.285,332.239 91.204,334.134 91.675 C 338.754 92.826,341.512 93.396,341.673 93.235 C 341.963 92.946,340.816 60.145,340.505 59.835 C 340.430 59.760,339.858 60.277,339.232 60.982 M369.392 253.556 C 369.392 253.723,369.791 253.769,370.323 253.662 C 371.125 253.502,371.238 253.555,371.139 254.045 C 371.056 254.453,370.815 254.587,370.283 254.519 C 367.496 254.161,366.578 254.145,365.734 254.439 C 364.677 254.807,364.097 254.503,364.392 253.734 C 364.599 253.193,369.392 253.022,369.392 253.556 " stroke="none" fill="#fbfafb" fill-rule="evenodd"></path><path id="path2" d="M95.405 20.003 C 94.989 21.098,94.751 26.107,95.095 26.522 C 96.258 27.923,96.770 27.899,64.034 27.981 L 33.458 28.057 33.308 104.426 C 33.226 146.429,33.166 180.825,33.175 180.862 C 33.184 180.899,34.116 179.278,35.247 177.261 C 39.102 170.380,47.008 158.812,50.161 155.439 C 50.547 155.026,51.219 154.211,51.654 153.628 C 59.319 143.352,72.928 133.641,84.021 130.530 C 85.259 130.183,86.677 129.783,87.172 129.641 C 88.180 129.352,93.286 128.480,94.674 128.360 L 95.574 128.282 95.434 125.581 C 95.249 121.995,95.243 116.978,95.415 109.677 C 95.493 106.377,95.532 102.461,95.501 100.975 C 95.381 95.190,95.439 93.217,95.741 92.853 C 95.962 92.586,95.918 92.149,95.589 91.362 C 94.997 89.945,95.003 89.107,95.622 87.144 C 96.086 85.671,96.086 85.511,95.622 84.803 C 94.954 83.783,94.883 77.719,95.539 77.719 C 96.102 77.719,96.395 76.153,95.904 75.769 C 95.637 75.560,95.501 74.335,95.454 71.718 C 95.418 69.655,95.255 67.372,95.094 66.644 C 94.894 65.746,94.900 65.220,95.112 65.008 C 95.510 64.610,95.515 63.527,95.120 63.132 C 94.915 62.927,94.925 62.513,95.153 61.859 C 95.353 61.286,95.444 59.625,95.376 57.788 C 95.284 55.305,95.341 54.716,95.658 54.837 C 96.056 54.990,95.971 54.204,95.422 52.663 C 95.235 52.138,95.281 40.603,95.506 31.557 C 95.548 29.851,95.477 28.390,95.348 28.310 C 95.219 28.231,95.206 28.016,95.319 27.834 C 95.431 27.652,95.493 26.071,95.456 24.321 C 95.361 19.890,96.266 18.185,97.657 20.172 C 98.170 20.904,98.322 24.448,97.854 24.738 C 97.702 24.832,97.646 26.913,97.726 29.482 C 97.805 31.999,97.868 34.869,97.867 35.859 C 97.864 38.682,97.897 45.621,97.921 47.112 C 97.933 47.854,97.902 54.269,97.852 61.365 C 97.787 70.494,97.869 75.001,98.131 76.773 C 98.355 78.286,98.417 80.068,98.288 81.274 C 98.026 83.715,98.052 88.705,98.351 93.323 C 98.519 95.920,98.465 97.320,98.131 98.979 C 97.732 100.963,97.734 101.218,98.157 101.529 C 98.675 101.910,98.756 112.343,98.251 113.573 C 98.117 113.900,98.000 117.208,97.991 120.925 L 97.974 127.682 106.077 127.869 C 113.391 128.038,118.646 128.455,124.681 129.345 C 131.319 130.323,138.985 131.611,147.187 133.125 C 148.507 133.368,150.296 133.695,151.163 133.851 C 152.029 134.006,153.515 134.274,154.464 134.445 C 164.579 136.271,185.338 138.173,183.620 137.117 C 183.459 137.018,183.316 114.667,183.272 82.503 L 183.196 28.057 140.760 27.907 L 98.325 27.757 98.041 26.906 C 97.825 26.258,97.883 25.822,98.286 25.075 C 98.889 23.955,98.783 20.448,98.122 19.652 C 97.464 18.859,95.757 19.080,95.405 20.003 M98.601 248.806 C 97.664 250.942,100.774 253.655,101.969 251.743 C 102.337 251.153,102.326 251.149,101.615 251.615 C 101.129 251.933,100.815 251.989,100.685 251.779 C 100.578 251.605,100.234 251.463,99.921 251.463 C 99.496 251.463,99.305 251.178,99.168 250.338 C 98.821 248.209,98.840 248.261,98.601 248.806 M339.380 252.219 C 338.969 252.714,334.072 252.730,333.008 252.241 C 332.690 252.094,332.483 252.122,332.483 252.311 C 332.483 252.916,333.716 253.013,340.968 252.980 C 342.555 252.973,343.837 253.115,344.194 253.338 C 344.639 253.616,344.921 253.624,345.329 253.369 C 345.627 253.183,346.943 252.997,348.254 252.957 C 352.575 252.823,352.431 253.004,347.487 253.925 C 345.701 254.258,344.379 254.319,340.135 254.261 C 335.427 254.198,331.876 254.348,331.774 254.614 C 331.700 254.807,332.903 254.877,335.147 254.810 C 337.065 254.753,340.165 254.731,342.036 254.762 C 343.907 254.793,346.306 254.646,347.367 254.435 C 349.035 254.104,349.500 254.117,350.807 254.535 C 352.202 254.981,352.385 254.980,353.177 254.526 C 353.884 254.120,354.158 254.098,354.737 254.402 C 355.363 254.731,357.392 254.754,363.016 254.495 C 363.389 254.478,363.691 254.270,363.691 254.031 C 363.691 253.418,363.183 253.182,362.585 253.516 C 362.231 253.715,361.863 253.662,361.377 253.345 C 360.872 253.014,360.285 252.940,359.249 253.077 C 358.423 253.187,356.428 253.058,354.528 252.774 C 350.488 252.169,346.057 252.214,345.330 252.868 C 344.876 253.275,344.751 253.273,344.138 252.843 C 343.761 252.579,342.883 252.363,342.186 252.363 C 341.490 252.363,340.837 252.228,340.735 252.063 C 340.463 251.622,339.813 251.697,339.380 252.219 M354.319 253.506 C 354.399 253.744,354.028 253.863,353.213 253.863 C 352.057 253.863,351.722 253.629,352.198 253.153 C 352.523 252.828,354.186 253.105,354.319 253.506 M364.392 253.734 C 364.097 254.503,364.677 254.807,365.734 254.439 C 366.578 254.145,367.496 254.161,370.283 254.519 C 370.815 254.587,371.056 254.453,371.139 254.045 C 371.238 253.555,371.125 253.502,370.323 253.662 C 369.791 253.769,369.392 253.723,369.392 253.556 C 369.392 253.022,364.599 253.193,364.392 253.734 M356.339 253.863 C 356.237 254.029,355.967 254.164,355.739 254.164 C 355.511 254.164,355.241 254.029,355.139 253.863 C 355.033 253.693,355.292 253.563,355.739 253.563 C 356.186 253.563,356.445 253.693,356.339 253.863 M360.786 253.888 C 360.561 254.113,360.058 254.123,359.150 253.920 L 357.839 253.628 359.475 253.596 C 360.648 253.572,361.018 253.655,360.786 253.888 " stroke="none" fill="#f3c3db" fill-rule="evenodd"></path><path id="path3" d="M95.698 20.322 C 95.527 20.772,95.418 22.572,95.456 24.321 C 95.493 26.071,95.431 27.652,95.319 27.834 C 95.206 28.016,95.219 28.231,95.348 28.310 C 95.477 28.390,95.548 29.851,95.506 31.557 C 95.281 40.603,95.235 52.138,95.422 52.663 C 95.971 54.204,96.056 54.990,95.658 54.837 C 95.341 54.716,95.284 55.305,95.376 57.788 C 95.444 59.625,95.353 61.286,95.153 61.859 C 94.925 62.513,94.915 62.927,95.120 63.132 C 95.515 63.527,95.510 64.610,95.112 65.008 C 94.900 65.220,94.894 65.746,95.094 66.644 C 95.255 67.372,95.418 69.655,95.454 71.718 C 95.501 74.335,95.637 75.560,95.904 75.769 C 96.395 76.153,96.102 77.719,95.539 77.719 C 94.883 77.719,94.954 83.783,95.622 84.803 C 96.086 85.511,96.086 85.671,95.622 87.144 C 95.003 89.107,94.997 89.945,95.589 91.362 C 95.918 92.149,95.962 92.586,95.741 92.853 C 95.439 93.217,95.381 95.190,95.501 100.975 C 95.532 102.461,95.493 106.377,95.415 109.677 C 95.251 116.638,95.276 120.375,95.549 129.482 C 95.760 136.505,95.744 143.360,95.495 153.338 C 95.410 156.722,95.356 160.840,95.375 162.491 C 95.410 165.587,95.409 166.456,95.369 167.742 C 95.356 168.155,95.358 168.830,95.374 169.242 C 95.389 169.655,95.329 175.023,95.240 181.171 C 95.122 189.275,95.174 192.641,95.428 193.411 C 95.707 194.257,95.697 194.570,95.376 194.958 C 94.886 195.550,94.892 206.695,95.383 208.842 C 95.586 209.733,95.593 211.275,95.403 213.447 C 95.211 215.628,95.218 217.091,95.424 217.854 C 95.615 218.566,95.628 219.268,95.457 219.717 C 95.290 220.156,95.304 222.421,95.492 225.522 C 95.711 229.126,95.705 231.744,95.471 234.509 C 95.096 238.937,95.315 254.443,95.760 254.907 C 95.937 255.092,101.275 255.173,110.211 255.127 C 118.108 255.086,127.141 255.205,130.617 255.397 C 136.264 255.708,137.006 255.692,138.483 255.228 C 139.379 254.946,140.269 254.811,140.460 254.929 C 140.898 255.200,191.701 255.155,200.750 254.876 C 204.464 254.761,208.177 254.680,209.002 254.696 C 216.893 254.845,221.281 254.745,221.486 254.413 C 221.772 253.951,224.612 253.970,225.176 254.438 C 225.467 254.680,226.782 254.728,229.599 254.599 C 233.247 254.433,240.014 254.375,243.811 254.477 C 247.982 254.590,249.962 254.434,249.962 253.992 C 249.962 253.681,250.183 253.598,250.713 253.708 C 251.125 253.793,251.767 253.922,252.138 253.994 C 252.509 254.065,253.373 254.018,254.058 253.889 C 254.742 253.761,255.517 253.775,255.779 253.922 C 256.041 254.068,261.557 254.176,268.037 254.162 C 274.518 254.147,280.495 254.138,281.320 254.141 C 283.435 254.148,305.189 254.097,307.727 254.079 C 308.882 254.071,310.379 254.169,311.054 254.297 C 311.934 254.464,312.528 254.403,313.154 254.083 C 313.743 253.781,314.251 253.720,314.711 253.893 C 315.119 254.046,315.977 254.015,316.845 253.815 C 317.987 253.551,319.174 253.585,322.407 253.973 C 325.513 254.345,326.671 254.384,327.147 254.129 C 327.570 253.902,328.570 253.866,330.205 254.017 C 331.540 254.141,333.983 254.239,335.634 254.234 C 337.284 254.229,339.310 254.238,340.135 254.254 C 345.180 254.348,346.362 254.240,350.638 253.297 C 352.132 252.967,351.379 252.860,348.254 252.957 C 346.943 252.997,345.627 253.183,345.329 253.369 C 344.921 253.624,344.639 253.616,344.194 253.338 C 343.610 252.973,338.825 252.725,338.303 253.032 C 338.155 253.119,336.617 253.058,334.884 252.897 C 332.087 252.636,321.638 252.413,310.906 252.385 C 307.724 252.377,307.126 252.451,306.786 252.894 C 306.465 253.313,306.337 253.336,306.124 253.013 C 305.954 252.755,305.053 252.578,303.580 252.513 C 302.326 252.459,301.180 252.340,301.034 252.249 C 300.887 252.159,298.890 252.209,296.595 252.361 C 292.326 252.644,279.696 252.737,277.269 252.504 C 270.368 251.840,255.226 251.717,252.473 252.302 C 250.540 252.712,250.218 252.710,249.144 252.281 C 248.133 251.876,247.273 251.844,243.354 252.063 C 238.952 252.310,237.953 252.246,233.989 251.458 C 232.533 251.169,230.871 251.336,230.584 251.802 C 230.329 252.213,229.139 252.108,228.081 251.580 C 227.289 251.185,226.885 251.157,225.860 251.425 C 225.170 251.605,224.269 251.749,223.856 251.744 C 223.443 251.740,222.026 251.891,220.705 252.079 C 218.726 252.362,217.524 252.332,213.857 251.909 L 209.410 251.395 208.819 252.029 C 208.114 252.787,207.404 252.848,207.145 252.173 C 206.977 251.737,206.531 251.711,203.028 251.935 C 200.868 252.073,198.560 252.150,197.899 252.106 C 195.739 251.961,194.682 251.969,187.697 252.189 C 181.012 252.400,179.211 252.418,168.642 252.387 C 165.919 252.379,163.251 252.454,162.712 252.552 C 162.124 252.660,161.557 252.584,161.289 252.362 C 160.757 251.920,145.655 252.299,144.097 252.794 C 143.767 252.899,143.016 252.754,142.423 252.471 C 141.457 252.010,140.838 251.988,136.315 252.261 C 133.203 252.449,130.825 252.460,130.083 252.289 C 129.422 252.138,128.072 252.107,127.082 252.221 C 124.442 252.524,121.864 252.497,117.479 252.121 C 111.458 251.603,102.801 251.657,101.715 252.218 C 101.109 252.532,100.669 252.586,100.305 252.390 C 100.013 252.234,99.558 252.041,99.292 251.960 C 98.654 251.767,98.294 249.141,98.745 247.972 C 98.977 247.370,99.007 245.085,98.847 240.360 C 98.721 236.647,98.571 229.625,98.514 224.756 C 98.457 219.887,98.392 215.296,98.371 214.554 C 98.349 213.811,98.505 212.258,98.717 211.103 C 98.998 209.573,99.036 207.901,98.857 204.951 C 98.587 200.516,98.547 197.868,98.629 189.947 C 98.659 187.059,98.678 183.886,98.671 182.896 C 98.664 181.905,98.757 180.319,98.879 179.370 C 99.001 178.409,98.978 177.479,98.825 177.270 C 98.542 176.881,98.590 163.983,98.900 157.163 C 99.044 153.998,98.986 153.108,98.568 152.012 C 98.165 150.958,98.128 150.482,98.384 149.687 C 98.837 148.283,98.878 135.005,98.443 130.983 C 98.027 127.149,97.886 114.461,98.248 113.578 C 98.755 112.345,98.676 101.911,98.157 101.529 C 97.734 101.218,97.732 100.963,98.131 98.979 C 98.465 97.320,98.519 95.920,98.351 93.323 C 98.052 88.705,98.026 83.715,98.288 81.274 C 98.417 80.068,98.355 78.286,98.131 76.773 C 97.869 75.001,97.787 70.494,97.852 61.365 C 97.902 54.269,97.933 47.854,97.921 47.112 C 97.897 45.621,97.864 38.682,97.867 35.859 C 97.868 34.869,97.805 31.999,97.726 29.482 C 97.646 26.913,97.702 24.832,97.854 24.738 C 98.322 24.448,98.170 20.904,97.657 20.172 C 97.008 19.245,96.081 19.316,95.698 20.322 M352.198 253.153 C 351.722 253.629,352.057 253.863,353.213 253.863 C 354.028 253.863,354.399 253.744,354.319 253.506 C 354.186 253.105,352.523 252.828,352.198 253.153 M355.139 253.863 C 355.241 254.029,355.511 254.164,355.739 254.164 C 355.967 254.164,356.237 254.029,356.339 253.863 C 356.445 253.693,356.186 253.563,355.739 253.563 C 355.292 253.563,355.033 253.693,355.139 253.863 M359.150 253.920 C 360.058 254.123,360.561 254.113,360.786 253.888 C 361.018 253.655,360.648 253.572,359.475 253.596 L 357.839 253.628 359.150 253.920 " stroke="none" fill="#a94880" fill-rule="evenodd"></path><path id="path4" d="M310.278 37.687 C 304.124 37.935,294.159 38.903,290.173 39.640 C 286.159 40.382,285.008 40.622,281.515 41.448 C 277.864 42.312,273.383 43.682,271.486 44.514 C 270.953 44.748,269.775 45.238,268.867 45.603 C 252.682 52.111,243.476 63.961,235.059 89.122 C 233.810 92.858,230.908 100.932,230.153 102.776 C 225.270 114.699,219.666 122.729,212.603 127.923 C 211.448 128.772,210.435 129.538,210.353 129.625 C 209.773 130.233,204.904 132.718,202.032 133.870 C 191.569 138.068,175.608 138.261,154.464 134.445 C 153.515 134.274,152.029 134.006,151.163 133.851 C 150.296 133.695,148.440 133.355,147.037 133.095 C 145.634 132.835,141.650 132.148,138.185 131.569 C 134.719 130.990,131.208 130.392,130.383 130.241 C 128.945 129.977,127.154 129.700,122.581 129.031 C 115.428 127.986,98.125 127.350,98.125 128.132 C 98.125 128.324,100.648 128.431,105.101 128.429 C 111.758 128.425,117.284 128.730,121.530 129.333 C 122.603 129.486,124.494 129.756,125.731 129.933 C 126.969 130.110,129.602 130.528,131.583 130.861 C 135.219 131.474,136.055 131.620,140.810 132.466 C 142.254 132.723,144.617 133.143,146.062 133.400 C 147.506 133.657,149.430 134.002,150.338 134.166 C 151.245 134.330,153.271 134.670,154.839 134.923 C 156.407 135.175,158.432 135.507,159.340 135.659 C 171.315 137.675,185.807 138.330,191.898 137.131 C 199.892 135.557,208.192 132.317,210.899 129.714 C 211.117 129.504,211.414 129.332,211.559 129.332 C 211.703 129.332,212.616 128.671,213.587 127.863 C 221.026 121.673,225.987 114.443,230.390 103.376 C 232.896 97.077,232.979 96.853,234.673 91.743 C 235.507 89.229,236.309 86.902,236.454 86.572 C 236.600 86.242,237.624 83.554,238.730 80.599 C 240.483 75.914,242.537 71.483,245.042 66.986 C 247.867 61.915,252.708 56.441,257.602 52.782 C 258.929 51.790,260.220 50.817,260.470 50.620 C 260.936 50.254,262.064 49.656,267.067 47.117 C 269.534 45.865,275.515 43.615,278.320 42.883 C 283.517 41.528,286.551 40.820,287.187 40.816 C 287.608 40.813,288.080 40.687,288.237 40.537 C 288.394 40.386,289.265 40.190,290.173 40.101 C 291.080 40.012,292.971 39.801,294.374 39.633 C 306.370 38.194,322.992 37.875,342.536 38.711 C 359.791 39.448,363.929 39.647,365.041 39.792 C 365.701 39.878,367.659 40.069,369.392 40.215 C 375.037 40.690,377.711 41.029,384.846 42.169 C 387.006 42.514,387.767 42.925,387.550 43.632 C 387.123 45.021,386.811 46.200,386.071 49.212 C 384.598 55.216,383.752 58.367,383.475 58.886 C 383.321 59.172,383.196 59.738,383.196 60.143 C 383.196 60.548,383.076 60.954,382.929 61.045 C 382.782 61.136,382.591 61.650,382.504 62.188 C 382.294 63.487,379.884 73.204,379.582 73.968 C 379.452 74.299,379.257 74.906,379.150 75.319 C 379.042 75.731,378.840 76.474,378.700 76.969 C 377.861 79.946,377.322 81.956,376.288 85.971 C 375.146 90.408,374.305 93.560,373.007 98.275 C 372.644 99.595,371.961 102.161,371.490 103.976 C 370.412 108.135,369.128 113.004,368.799 114.179 C 367.608 118.427,367.175 120.046,366.391 123.181 C 365.896 125.161,365.344 127.322,365.166 127.982 C 364.988 128.642,364.698 129.722,364.523 130.383 C 364.348 131.043,364.016 132.176,363.787 132.902 C 363.360 134.246,360.813 143.930,360.384 145.836 C 360.254 146.414,359.934 147.629,359.673 148.537 C 358.856 151.379,357.983 154.563,357.042 158.140 C 354.943 166.116,354.110 169.248,353.370 171.943 C 352.939 173.511,351.900 177.427,351.061 180.645 C 350.222 183.863,349.421 186.902,349.280 187.397 C 348.635 189.669,347.376 194.340,346.448 197.899 C 345.482 201.606,344.856 203.945,343.557 208.702 C 343.241 209.857,342.434 212.896,341.764 215.454 C 340.483 220.338,339.575 223.727,338.144 228.957 C 337.670 230.690,336.683 234.404,335.952 237.209 C 335.220 240.015,334.413 243.053,334.158 243.961 C 331.938 251.879,331.754 252.663,332.115 252.663 C 332.242 252.663,332.729 251.077,333.198 249.137 C 333.666 247.198,334.154 245.274,334.282 244.861 C 334.410 244.449,334.664 243.571,334.847 242.911 C 336.377 237.387,337.459 233.364,338.762 228.357 C 340.189 222.875,340.931 220.116,341.951 216.504 C 342.183 215.679,343.063 212.371,343.906 209.152 C 344.749 205.934,345.551 202.896,345.690 202.401 C 346.338 200.082,347.911 194.226,348.832 190.698 C 349.980 186.303,350.284 185.163,352.115 178.395 C 352.830 175.754,353.784 172.176,354.236 170.443 C 354.689 168.710,355.441 165.941,355.908 164.291 C 356.374 162.641,357.230 159.467,357.808 157.239 C 358.387 155.011,359.082 152.378,359.354 151.388 C 359.626 150.398,359.961 149.115,360.099 148.537 C 360.237 147.959,360.484 147.014,360.647 146.437 C 360.915 145.487,361.896 141.862,363.694 135.184 C 364.049 133.863,364.586 131.838,364.886 130.683 C 365.186 129.527,365.648 127.806,365.912 126.857 C 366.556 124.540,367.121 122.428,368.339 117.779 C 369.492 113.383,369.994 111.508,370.832 108.477 C 371.151 107.322,372.103 103.743,372.947 100.525 C 374.672 93.949,375.018 92.662,375.405 91.373 C 375.554 90.878,376.420 87.637,377.331 84.171 C 378.242 80.705,379.122 77.397,379.288 76.819 C 379.853 74.855,381.619 68.280,382.594 64.516 C 384.283 57.989,385.216 54.523,385.944 52.063 C 388.021 45.045,388.507 42.417,387.772 42.186 C 379.580 39.620,331.521 36.829,310.278 37.687 M338.719 60.690 C 337.736 61.722,336.573 63.038,336.134 63.616 C 335.695 64.194,334.998 65.004,334.585 65.417 C 334.171 65.829,332.412 67.787,330.674 69.768 C 328.936 71.748,326.033 75.055,324.222 77.117 C 322.412 79.179,320.593 81.258,320.180 81.738 C 319.767 82.217,318.822 83.283,318.080 84.107 C 315.776 86.662,315.655 86.826,315.743 87.274 C 315.835 87.741,316.886 88.082,321.380 89.103 C 327.315 90.452,327.140 90.391,326.991 91.060 C 326.828 91.784,323.874 100.404,323.489 101.275 C 322.932 102.537,321.420 106.783,320.656 109.227 C 320.217 110.630,319.739 112.048,319.592 112.378 C 319.445 112.708,318.830 114.329,318.224 115.979 C 317.619 117.629,316.875 119.655,316.573 120.480 C 316.270 121.305,315.858 122.521,315.659 123.181 C 315.459 123.841,315.191 124.651,315.064 124.981 C 313.802 128.249,311.284 135.308,310.140 138.785 C 309.706 140.105,309.234 141.455,309.092 141.785 C 308.561 143.017,307.770 145.209,306.331 149.437 C 305.516 151.830,304.731 154.059,304.587 154.389 C 304.442 154.719,303.965 156.002,303.526 157.239 C 303.087 158.477,302.611 159.760,302.468 160.090 C 302.326 160.420,301.539 162.648,300.719 165.041 C 299.900 167.434,298.668 170.945,297.982 172.843 C 297.295 174.741,296.329 177.509,295.835 178.995 C 295.341 180.480,294.818 181.965,294.672 182.296 C 294.249 183.254,292.413 188.344,291.371 191.448 C 290.845 193.016,290.303 194.569,290.167 194.899 C 290.032 195.229,289.554 196.512,289.106 197.749 C 288.658 198.987,288.202 200.100,288.094 200.223 C 287.924 200.415,287.437 197.503,286.240 189.122 C 286.092 188.091,285.831 186.335,285.660 185.221 C 285.488 184.107,285.230 182.318,285.085 181.245 C 284.940 180.173,284.676 178.215,284.498 176.894 C 284.320 175.574,284.039 173.548,283.874 172.393 C 283.709 171.238,283.298 168.267,282.961 165.791 C 282.623 163.316,282.221 160.446,282.066 159.414 C 281.911 158.381,281.638 156.558,281.458 155.363 C 281.279 154.167,281.008 152.446,280.855 151.538 C 280.703 150.630,280.370 148.267,280.117 146.287 C 279.863 144.306,279.530 141.943,279.376 141.035 C 279.222 140.128,279.017 138.710,278.920 137.884 C 278.667 135.736,277.619 128.005,277.293 125.881 C 275.727 115.690,275.239 112.295,274.615 107.277 C 274.073 102.918,273.988 102.915,271.118 107.148 C 269.952 108.869,266.976 113.247,264.506 116.876 C 262.036 120.505,259.880 123.700,259.715 123.976 C 259.550 124.253,258.693 125.537,257.811 126.831 C 248.688 140.205,241.875 150.246,241.260 151.224 C 240.467 152.486,236.287 158.679,232.339 164.441 C 231.038 166.339,229.070 169.242,227.964 170.893 C 226.859 172.543,225.043 175.242,223.930 176.890 C 222.817 178.538,220.455 182.048,218.681 184.692 C 216.908 187.335,215.345 189.636,215.207 189.805 C 215.069 189.974,212.454 193.822,209.396 198.357 C 206.338 202.891,202.455 208.627,200.768 211.103 C 199.081 213.578,195.787 218.461,193.449 221.953 C 189.449 227.926,188.447 229.021,188.447 227.421 C 188.447 227.277,187.960 226.112,187.365 224.832 C 185.604 221.043,184.985 219.658,183.713 216.653 C 183.049 215.084,182.072 212.856,181.541 211.701 C 181.010 210.547,179.904 208.050,179.082 206.152 C 178.261 204.254,177.061 201.573,176.416 200.196 C 175.771 198.818,175.244 197.640,175.244 197.579 C 175.244 197.517,174.920 196.754,174.524 195.883 C 174.128 195.012,173.595 193.792,173.339 193.173 C 172.792 191.850,172.227 191.755,170.921 192.769 C 170.410 193.165,165.941 196.608,160.990 200.420 C 156.039 204.231,150.503 208.499,148.687 209.904 C 146.872 211.309,142.483 214.685,138.935 217.408 C 135.386 220.130,130.998 223.505,129.182 224.908 C 127.367 226.310,122.978 229.689,119.430 232.416 C 115.881 235.144,112.241 237.945,111.340 238.642 C 107.112 241.915,103.743 244.498,101.200 246.416 C 99.674 247.568,98.425 248.563,98.425 248.627 C 98.425 249.001,99.957 247.954,104.109 244.744 C 106.677 242.758,110.060 240.151,111.628 238.950 C 120.055 232.492,124.915 228.755,128.732 225.793 C 130.465 224.449,135.394 220.654,139.685 217.360 C 143.976 214.066,149.670 209.690,152.339 207.636 C 155.008 205.582,158.430 202.956,159.943 201.800 C 161.457 200.645,164.742 198.110,167.244 196.167 C 169.746 194.224,171.992 192.672,172.236 192.719 C 172.489 192.767,173.668 195.047,174.994 198.052 C 176.268 200.939,177.673 204.111,178.118 205.101 C 178.562 206.092,179.905 209.130,181.102 211.853 C 182.299 214.576,183.683 217.682,184.177 218.755 C 184.670 219.827,185.853 222.500,186.806 224.694 C 188.780 229.244,188.927 229.333,190.548 226.968 C 191.125 226.124,193.733 222.277,196.343 218.419 C 198.953 214.560,203.378 208.027,206.178 203.901 C 208.977 199.775,213.231 193.496,215.632 189.947 C 218.032 186.399,222.384 179.971,225.302 175.663 C 228.220 171.355,232.380 165.211,234.547 162.010 C 236.713 158.808,239.589 154.569,240.938 152.588 C 242.287 150.608,245.485 145.881,248.045 142.086 C 250.604 138.290,254.123 133.091,255.864 130.533 C 257.605 127.974,261.669 121.965,264.896 117.179 C 274.429 103.039,273.701 103.836,274.081 107.127 C 274.186 108.035,274.401 109.587,274.559 110.578 C 275.013 113.423,275.601 117.571,277.429 130.833 C 278.168 136.197,278.899 141.328,279.053 142.236 C 279.683 145.957,280.271 150.063,282.081 163.391 C 282.418 165.866,282.823 168.736,282.982 169.767 C 283.512 173.211,283.838 175.383,284.004 176.594 C 284.429 179.689,285.386 186.394,285.653 188.147 C 285.816 189.220,286.090 191.110,286.260 192.348 C 286.431 193.586,286.773 196.054,287.021 197.834 C 287.269 199.613,287.472 201.132,287.472 201.209 C 287.472 201.287,287.658 201.350,287.886 201.350 C 288.332 201.350,288.541 200.901,289.700 197.449 C 290.115 196.212,290.810 194.254,291.243 193.098 C 291.677 191.943,292.886 188.567,293.931 185.596 C 294.975 182.626,296.392 178.642,297.079 176.744 C 297.767 174.846,298.864 171.740,299.518 169.842 C 300.173 167.944,300.835 166.122,300.989 165.791 C 301.289 165.153,303.961 157.605,304.867 154.839 C 305.164 153.931,305.816 152.108,306.315 150.788 C 306.814 149.467,307.628 147.239,308.125 145.836 C 308.621 144.434,310.133 140.192,311.485 136.411 C 312.837 132.630,314.204 128.714,314.523 127.709 C 314.842 126.704,315.223 125.611,315.369 125.281 C 315.874 124.142,317.464 119.787,318.233 117.437 C 318.658 116.140,319.125 114.809,319.273 114.479 C 319.420 114.149,319.966 112.663,320.486 111.178 C 321.007 109.692,322.111 106.587,322.940 104.276 C 323.769 101.965,324.624 99.535,324.840 98.875 C 325.057 98.215,325.661 96.527,326.184 95.124 C 327.263 92.231,327.682 90.923,327.682 90.450 C 327.682 90.126,327.058 89.942,320.042 88.191 C 318.067 87.698,316.395 87.238,316.326 87.169 C 316.257 87.099,317.602 85.459,319.315 83.525 C 321.029 81.590,324.103 78.108,326.147 75.787 C 328.191 73.467,330.705 70.623,331.733 69.467 C 332.762 68.312,333.990 66.894,334.463 66.317 C 334.936 65.739,335.944 64.591,336.703 63.766 C 337.461 62.941,338.631 61.663,339.302 60.926 L 340.522 59.587 340.693 61.826 C 340.882 64.300,341.365 76.656,341.670 86.837 L 341.867 93.403 341.001 93.254 C 340.254 93.125,338.007 92.609,333.639 91.562 C 332.097 91.193,332.018 91.291,330.548 95.446 C 329.822 97.497,328.804 100.323,328.286 101.725 C 327.338 104.291,325.441 109.632,324.982 111.028 C 324.846 111.440,324.306 112.926,323.781 114.329 C 323.257 115.731,322.241 118.567,321.523 120.630 C 320.805 122.693,319.723 125.731,319.118 127.382 C 318.513 129.032,317.500 131.868,316.867 133.683 C 316.233 135.499,315.223 138.335,314.622 139.985 C 313.281 143.667,310.309 152.015,309.973 153.038 C 309.838 153.451,309.230 155.139,308.622 156.789 C 308.013 158.440,306.996 161.275,306.362 163.091 C 305.727 164.906,304.783 167.539,304.264 168.942 C 303.745 170.345,302.732 173.181,302.013 175.244 C 301.293 177.307,300.213 180.345,299.611 181.995 C 298.298 185.600,295.313 193.999,294.971 195.049 C 294.837 195.461,294.299 196.947,293.776 198.350 C 293.253 199.752,292.155 202.858,291.335 205.251 C 290.516 207.644,289.720 209.872,289.566 210.203 C 289.047 211.318,286.572 218.378,286.572 218.743 C 286.572 219.774,285.795 218.650,285.630 217.381 C 285.525 216.568,285.295 214.891,285.120 213.653 C 284.944 212.416,284.586 209.850,284.325 207.952 C 283.937 205.138,282.017 191.729,280.522 181.395 C 280.355 180.240,280.163 179.239,280.094 179.170 C 279.795 178.869,280.031 181.239,280.882 187.077 C 281.383 190.520,282.068 195.308,282.404 197.718 C 282.739 200.129,283.139 202.944,283.292 203.976 C 283.879 207.927,284.144 209.741,284.748 213.953 C 285.637 220.155,285.658 220.255,286.085 220.255 C 286.297 220.255,286.614 219.816,286.789 219.280 C 287.285 217.762,290.282 209.334,291.511 206.002 C 292.119 204.351,292.870 202.258,293.179 201.350 C 294.014 198.898,295.111 195.817,296.169 192.948 C 297.226 190.086,298.603 186.195,299.515 183.496 C 299.849 182.506,300.778 179.940,301.578 177.794 C 302.379 175.649,303.386 172.813,303.817 171.493 C 304.249 170.173,304.721 168.822,304.867 168.492 C 305.284 167.552,308.232 159.403,309.263 156.339 C 309.960 154.269,311.195 150.858,311.490 150.188 C 311.984 149.068,315.079 140.134,315.079 139.830 C 315.079 139.663,315.198 139.292,315.344 139.006 C 315.959 137.796,316.862 135.369,319.388 128.132 C 320.281 125.574,321.508 122.131,322.114 120.480 C 322.720 118.830,323.558 116.467,323.976 115.229 C 324.914 112.454,326.720 107.487,327.086 106.677 C 327.234 106.347,327.976 104.254,328.734 102.026 C 330.644 96.409,330.794 95.985,331.505 94.224 C 331.672 93.811,331.964 93.087,332.154 92.615 C 332.435 91.918,332.625 91.795,333.167 91.958 C 335.348 92.615,341.023 93.923,341.691 93.923 L 342.481 93.923 342.262 87.847 C 342.142 84.505,341.918 78.530,341.763 74.569 C 341.055 56.389,341.385 57.892,338.719 60.690 M263.120 127.283 C 258.929 133.444,253.906 140.848,251.958 143.736 C 250.010 146.624,246.251 152.161,243.604 156.039 C 240.958 159.917,237.534 164.981,235.996 167.292 C 234.458 169.602,231.173 174.464,228.696 178.095 C 226.219 181.725,221.912 188.072,219.124 192.198 C 212.254 202.367,208.677 207.644,205.392 212.453 C 200.577 219.501,197.251 224.418,192.861 230.975 C 188.050 238.162,188.226 238.024,187.091 235.484 C 186.631 234.452,185.855 232.731,185.367 231.658 C 184.880 230.585,184.365 229.437,184.222 229.107 C 183.005 226.281,181.455 222.771,180.712 221.155 C 180.218 220.083,179.194 217.768,178.436 216.011 C 177.678 214.254,176.514 211.647,175.850 210.217 C 175.187 208.786,174.644 207.560,174.644 207.492 C 174.644 207.423,174.239 206.482,173.743 205.401 C 173.248 204.320,172.843 203.378,172.843 203.307 C 172.843 202.633,170.869 199.251,170.480 199.258 C 170.212 199.262,168.777 200.210,167.292 201.363 C 165.806 202.517,162.836 204.802,160.690 206.442 C 158.545 208.081,155.439 210.465,153.788 211.739 C 152.138 213.013,149.370 215.141,147.637 216.467 C 142.040 220.749,139.488 222.712,133.939 227.000 C 128.266 231.384,111.947 243.937,109.549 245.761 C 104.494 249.607,101.711 251.848,101.835 251.973 C 101.915 252.052,105.015 249.775,108.725 246.914 C 117.995 239.763,128.714 231.532,131.264 229.607 C 132.430 228.727,133.655 227.782,133.987 227.507 C 134.319 227.232,135.669 226.197,136.987 225.206 C 138.305 224.216,139.536 223.271,139.723 223.106 C 139.910 222.941,141.310 221.860,142.833 220.705 C 144.357 219.550,146.998 217.524,148.702 216.204 C 150.405 214.884,153.041 212.858,154.558 211.703 C 159.063 208.272,163.177 205.114,166.777 202.324 C 170.920 199.113,170.495 199.075,172.098 202.795 C 172.831 204.498,173.827 206.726,174.310 207.747 C 174.793 208.767,175.552 210.480,175.996 211.553 C 176.441 212.626,177.144 214.246,177.557 215.154 C 177.971 216.062,178.908 218.155,179.639 219.805 C 180.371 221.455,181.093 223.076,181.245 223.406 C 181.397 223.736,182.120 225.356,182.851 227.007 C 183.582 228.657,184.577 230.885,185.062 231.958 C 185.546 233.031,186.324 234.820,186.790 235.934 C 187.878 238.537,188.284 238.537,190.013 235.934 C 192.190 232.656,196.759 225.892,200.603 220.255 C 206.207 212.037,210.485 205.730,213.223 201.650 C 214.608 199.587,216.255 197.157,216.884 196.249 C 217.512 195.341,219.990 191.695,222.389 188.147 C 224.789 184.599,228.240 179.535,230.058 176.894 C 231.876 174.254,235.180 169.392,237.401 166.092 C 239.622 162.791,243.406 157.187,245.809 153.638 C 248.212 150.090,251.274 145.566,252.614 143.586 C 253.953 141.605,255.171 139.839,255.321 139.660 C 255.471 139.482,256.521 137.929,257.654 136.209 C 258.788 134.490,259.782 133.016,259.865 132.933 C 259.947 132.851,261.374 130.758,263.034 128.282 C 264.695 125.806,267.126 122.228,268.436 120.330 L 270.818 116.879 271.010 118.530 C 271.258 120.669,271.782 124.466,272.168 126.932 C 272.335 128.005,272.602 129.827,272.760 130.983 C 272.918 132.138,273.258 134.434,273.515 136.084 C 274.294 141.085,274.613 143.201,274.872 145.086 C 275.008 146.077,275.259 147.899,275.430 149.137 C 275.601 150.375,276.019 153.411,276.359 155.885 C 276.699 158.358,277.183 161.734,277.434 163.386 C 277.685 165.039,278.027 167.337,278.194 168.492 C 278.361 169.647,278.615 171.403,278.759 172.393 C 278.903 173.383,279.166 175.194,279.343 176.417 C 279.520 177.640,279.734 178.709,279.818 178.792 C 280.096 179.070,279.976 177.185,279.543 174.471 C 279.027 171.244,278.704 169.015,277.694 161.740 C 276.549 153.498,276.461 152.877,275.923 149.287 C 275.651 147.472,275.293 145.041,275.129 143.886 C 274.964 142.731,274.712 140.975,274.570 139.985 C 274.427 138.995,273.898 135.214,273.395 131.583 C 271.895 120.760,271.235 116.593,270.981 116.330 C 270.848 116.193,267.311 121.122,263.120 127.283 M90.173 129.047 C 79.324 131.274,72.601 134.323,64.901 140.509 C 61.710 143.073,53.357 151.345,51.654 153.628 C 51.219 154.211,50.547 155.026,50.161 155.439 C 38.890 167.498,25.845 193.085,19.105 216.354 C 17.205 222.915,14.968 232.694,15.031 234.169 C 15.066 235.006,15.285 234.157,16.509 228.432 C 16.928 226.472,19.487 216.111,19.825 215.004 C 22.092 207.589,25.489 198.327,27.777 193.327 C 28.178 192.449,28.507 191.649,28.507 191.550 C 28.507 191.451,29.975 188.440,31.768 184.859 C 37.443 173.527,42.518 165.607,50.332 155.889 C 53.119 152.424,60.012 145.256,63.332 142.372 C 64.084 141.719,65.135 140.809,65.667 140.349 C 70.153 136.477,79.059 132.145,86.122 130.399 C 91.087 129.172,91.761 129.034,92.953 129.002 C 93.569 128.986,94.411 128.864,94.824 128.732 C 96.333 128.249,92.942 128.478,90.173 129.047 M14.726 235.109 C 14.712 235.274,14.559 236.219,14.387 237.209 C 13.354 243.142,12.405 251.154,12.022 257.164 C 11.518 265.066,11.311 271.159,11.517 271.982 L 11.715 272.769 169.323 272.693 L 326.932 272.618 327.612 270.068 C 327.986 268.665,328.775 265.694,329.365 263.466 C 329.954 261.238,330.559 258.976,330.710 258.440 C 330.860 257.903,331.097 257.026,331.236 256.489 C 331.376 255.953,331.594 255.176,331.720 254.764 C 331.887 254.219,331.859 254.100,331.618 254.327 C 331.435 254.500,330.873 256.256,330.369 258.228 C 329.864 260.201,329.069 263.166,328.600 264.816 C 328.132 266.467,327.511 268.729,327.221 269.843 C 326.930 270.957,326.530 272.004,326.331 272.169 C 326.091 272.368,273.337 272.443,169.061 272.393 L 12.153 272.318 12.196 265.936 C 12.258 256.900,13.029 248.230,14.703 237.731 C 14.895 236.532,14.984 235.384,14.901 235.180 C 14.819 234.976,14.740 234.944,14.726 235.109 " stroke="none" fill="#a1bbed" fill-rule="evenodd"></path></g></svg>